HIERARCHY
ROOT Hips
{
	OFFSET 0 0 0
	CHANNELS 6 Xposition Yposition Zposition Zrotation Yrotation Xrotation
	JOINT Chest
	{
		OFFSET 0 33 0
		CHANNELS 3 Zrotation Yrotation Xrotation
		JOINT Chest2
		{
			OFFSET 0 23 0
			CHANNELS 3 Zrotation Yrotation Xrotation
			JOINT Neck
			{
				OFFSET 0 7 0
				CHANNELS 3 Zrotation Yrotation Xrotation
				JOINT Head
				{
					OFFSET 0 15 0
					CHANNELS 3 Zrotation Yrotation Xrotation
					End Site
					{
						OFFSET 0.0 0.0 0.0
					}
				}
			}
			JOINT LeftShoulder
			{
				OFFSET -14 0 0
				CHANNELS 3 Zrotation Yrotation Xrotation
				JOINT LeftElbow
				{
					OFFSET -25 0 0
					CHANNELS 3 Zrotation Yrotation Xrotation
					JOINT LeftWrist
					{
						OFFSET -23 0 0
						CHANNELS 3 Zrotation Yrotation Xrotation
						JOINT LeftHand
						{
							OFFSET -8.32 0 0
							CHANNELS 3 Zrotation Yrotation Xrotation
							End Site
							{
								OFFSET 0.0 0.0 0.0
							}
						}
					}
				}
			}
			JOINT RightShoulder
			{
				OFFSET 14 0 0
				CHANNELS 3 Zrotation Yrotation Xrotation
				JOINT RightElbow
				{
					OFFSET 25 0 0
					CHANNELS 3 Zrotation Yrotation Xrotation
					JOINT RightWrist
					{
						OFFSET 23 0 0
						CHANNELS 3 Zrotation Yrotation Xrotation
						JOINT RightHand
						{
							OFFSET 8.32 0 0
							CHANNELS 3 Zrotation Yrotation Xrotation
							End Site
							{
								OFFSET 0.0 0.0 0.0
							}
						}
					}
				}
			}
		}
	}
	JOINT HipLeft
	{
		OFFSET -9.52 0 0
		CHANNELS 3 Zrotation Yrotation Xrotation
		JOINT LeftKnee
		{
			OFFSET 0 -37.32 0
			CHANNELS 3 Zrotation Yrotation Xrotation
			JOINT LeftAnkle
			{
				OFFSET 0 -34.6 0
				CHANNELS 3 Zrotation Yrotation Xrotation
				JOINT LeftFoot
				{
					OFFSET 0 0 8.91
					CHANNELS 3 Zrotation Yrotation Xrotation
					End Site
					{
						OFFSET 0.0 0.0 0.0
					}
				}
			}
		}
	}
	JOINT RightHip
	{
		OFFSET 9.52 0 0
		CHANNELS 3 Zrotation Yrotation Xrotation
		JOINT RightKnee
		{
			OFFSET 0 -37.32 0
			CHANNELS 3 Zrotation Yrotation Xrotation
			JOINT RightAnkle
			{
				OFFSET 0 -34.6 0
				CHANNELS 3 Zrotation Yrotation Xrotation
				JOINT RightFoot
				{
					OFFSET 0 0 8.91
					CHANNELS 3 Zrotation Yrotation Xrotation
					End Site
					{
						OFFSET 0.0 0.0 0.0
					}
				}
			}
		}
	}
}

MOTION
Frames: 34
Frame Time: 0.033333
-15.0817 1.7348 151.481 178.837 -12.172 -171.826 0.663814 -0.0164828 2.12753 -2.49844 0.611518 16.5695 0 0 0 0 0 0 0 0 0 0 0 0 0 0 0 0 0 0 0 0 0 0 0 0 0 0 0 0 0 0 0 0 0 0 0 0 180 -1.86655e-06 -28.3307 0 0 0 0 0 0 0 0 0 -180 -2.22972e-06 -54.1489 0 0 0 
-15.1251 1.73284 150.926 178.619 -12.2985 -171.231 0.754241 -0.0235519 2.27812 -2.50171 0.547799 16.0038 0 -8.53774e-07 0 0 -8.53774e-07 0 0 0 0 0 0 0 0 0 0 0 0 0 0 0 0 0 0 0 0 0 0 0 0 0 0 0 0 0 0 0 -180 7.77929e-07 -30.0641 0 0 0 0 0 0 0 0 0 -180 8.74553e-07 4.12349 0 0 0 
-15.106 1.66872 150.084 178.201 -12.6273 -170.644 0.811199 -0.0269569 2.24725 -2.63957 0.570424 16.282 0 0 0 0 0 0 0 0 0 0 0 0 0 0 0 0 0 0 0 0 0 0 0 0 0 0 0 0 0 0 0 0 0 0 0 0 -180 -5.35874e-07 -31.7333 0 0 0 0 0 0 0 0 0 -180 1.87836e-06 4.87442 0 0 0 
-14.9571 1.5286 149.102 177.887 -12.7039 -170.046 0.800484 -0.0224438 2.23943 -2.48719 0.57407 16.6988 0 0 0 0 0 0 0 0 0 0 0 0 0 0 0 0 0 0 0 0 0 0 0 0 0 0 0 0 0 0 0 0 0 0 0 0 -180 -9.72754e-07 -31.8014 0 0 0 0 0 0 0 0 0 -180 4.2472e-07 -61.6357 0 0 0 
-14.6085 1.0619 147.854 177.347 -13.3955 -169.253 0.824863 -0.0244537 2.2657 -2.60264 0.611299 17.1173 0 -5.33609e-08 0 0 -5.33609e-08 0 0 0 0 0 0 0 0 0 0 0 0 0 0 0 0 0 0 0 0 0 0 0 0 0 0 0 0 0 0 0 -180 -1.25692e-06 -27.8157 0 0 0 0 0 0 0 0 0 -180 -4.45177e-06 -56.6212 0 0 0 
-14.2679 0.491614 146.595 177.097 -13.1329 -168.689 0.804511 -0.0177143 2.28196 -2.65481 0.725727 18.171 0 0 0 0 0 0 0 0 0 0 0 0 0 0 0 0 0 0 0 0 0 0 0 0 0 0 0 0 0 0 0 0 0 0 0 0 -180 -3.23013e-06 -30.14 0 0 0 0 0 0 0 0 0 -180 -3.15287e-06 6.7484 0 0 0 
-13.919 0.139345 145.361 176.564 -13.4345 -167.57 0.878089 -0.0148349 2.48048 -2.3119 0.652985 18.3389 0 0 0 0 0 0 0 0 0 0 0 0 0 0 0 0 0 0 0 0 0 0 0 0 0 0 0 0 0 0 0 0 0 0 0 0 -180 3.16297e-06 -30.4881 0 0 0 0 0 0 0 0 0 -180 7.46454e-07 7.13372 0 0 0 
-13.4799 -0.331159 143.723 176.061 -13.4273 -166.318 0.854321 -0.0129693 2.4847 -2.29958 0.656907 18.1719 0 0 0 0 0 0 0 0 0 0 0 0 0 0 0 0 0 0 -76.6825 -13.0967 25.8731 0 0 0 0 0 0 0 0 0 0 0 0 0 0 0 -180 1.62932e-06 -26.9014 0 0 0 0 0 0 0 0 0 -180 -9.72768e-07 7.47225 0 0 0 
-13.2415 -1.2691 142.32 176.055 -11.1688 -165.162 0.829163 -0.24344 2.63254 -3.28361 -0.654767 18.1074 0 0 0 0 0 0 0 0 0 0 0 0 0 0 0 0 0 0 -75.8342 -11.5652 21.8421 0 0 0 0 0 0 0 0 0 0 0 0 0 0 0 -180 1.55244e-06 -28.0586 0 0 0 0 0 0 0 0 0 -180 2.13916e-06 7.98189 0 0 0 
-12.9532 -2.04937 140.742 174.743 -12.618 -163.482 0.984707 -0.310722 2.677 -3.27807 -1.09664 18.1304 0 0 0 0 0 0 0 0 0 0 0 0 0 0 0 0 0 0 -75.7522 -11.5001 23.324 0 0 0 0 0 0 0 0 0 0 0 0 0 0 0 -180 3.52203e-06 -28.1042 0 0 0 0 0 0 0 0 0 -180 1.1299e-06 8.51906 0 0 0 
-12.5482 -2.7957 139.179 173.805 -11.9869 -161.465 1.02531 -0.365577 2.87682 -4.52223 -0.836376 17.0617 0 0 0 0 0 0 0 0 0 0 0 0 0 0 0 0 0 0 -74.7881 -10.6838 23.9905 0 0 0 0 0 0 0 0 0 0 0 0 0 0 0 -180 -1.25241e-06 -28.3798 0 0 0 0 0 0 0 0 0 -180 1.79213e-06 9.02058 0 0 0 
-11.8461 -3.51478 137.256 172.816 -11.8058 -159.629 0.885842 -0.3649 2.76448 -6.53247 -0.273333 15.4356 0 0 -3.4151e-06 0 0 -3.4151e-06 0 0 0 0 0 0 0 0 0 0 0 0 -72.4366 -8.01815 25.6971 0 0 0 0 0 0 0 0 0 0 0 0 0 0 0 -180 -3.29823e-07 -29.6783 0 0 0 0 0 0 0 0 0 -180 8.37485e-06 -58.7709 0 0 0 
-11.1887 -4.09319 135.746 172.507 -10.2962 -157.983 0.890533 -0.397032 3.07445 -7.10253 -0.0739449 15.9048 0 0 0 0 0 0 0 0 0 0 0 0 0 0 0 0 0 0 -72.026 -8.05289 26.2904 -1.10121e-06 -29.2825 5.68812 -2.82479e-06 -27.4914 -2.82479e-06 0 0 -1.70755e-06 0 0 0 0 0 0 -180 -2.71822e-06 -29.038 0 0 0 0 0 0 0 0 0 -180 5.0068e-07 9.6595 0 0 0 
-10.3619 -4.69825 133.987 172.245 -9.34738 -156.401 0.6996 -0.348985 2.96594 -7.41713 0.203453 16.1333 0 0 0 0 0 0 0 0 0 0 0 0 0 0 0 0 0 0 -71.9723 -7.47807 25.4895 1.48387e-06 -30.3386 16.3922 -3.78001e-06 -28.9902 9.77231e-07 0 0 0 0 0 0 0 0 0 -180 9.75639e-07 -29.0904 0 0 0 0 0 0 0 0 0 -180 -9.77637e-07 9.38846 0 0 0 
-9.56845 -5.1216 132.495 171.603 -9.12083 -154.799 0.780577 -0.393541 3.18653 -8.35537 0.385121 16.365 0 0 0 0 0 0 0 0 0 0 0 0 0 0 0 0 0 0 -71.3971 -7.67088 25.0531 1.48229e-06 -30.2339 18.8813 -5.22305e-06 -43.2547 3.9077e-06 0 0 0 0 0 0 0 0 0 -180 9.57963e-07 -32.3787 0 0 0 0 0 0 0 0 0 -180 3.4564e-06 9.30678 0 0 0 
-8.8784 -5.30359 131.002 170.756 -9.04776 -152.999 0.817325 -0.405948 3.27778 -10.0758 0.795046 14.774 0 0 0 0 0 0 0 0 0 0 0 0 0 0 0 0 0 0 -70.1206 -6.19673 25.0418 5.06271e-06 -32.5206 30.5035 -2.42734e-06 -78.3631 -2.42734e-06 0 0 0 0 0 0 0 0 0 -180 -2.57948e-06 -31.6646 4.26887e-07 1.98785e-16 -5.33609e-08 -8.17202 -20.3242 -15.9207 11.9248 17.8972 34.497 -180 1.09813e-06 12.0731 0 0 0 
-8.28114 -5.39956 129.637 169.917 -9.74323 -151.306 0.825418 -0.426417 3.38628 -9.96125 0.647435 13.1008 0 0 0 0 0 0 0 0 0 0 0 0 0 0 0 0 0 0 -70.5559 -5.63865 26.1234 -1.00895e-05 -32.199 31.9734 2.10868e-05 -78.4845 -1.50191e-05 0 0 0 0 0 0 0 0 0 -180 5.08062e-06 -32.6761 0 0 0 -7.44533 -20.2835 -16.4675 11.0332 17.4085 33.0929 -180 -3.24356e-07 11.1016 0 0 0 
-7.64592 -5.61791 128.128 170.008 -10.3343 -151.267 0.811871 -0.359797 3.0627 -7.6809 0.299797 17.0504 0 0 0 0 0 0 0 0 0 0 0 0 0 0 0 0 0 0 -73.7759 -12.1895 25.4061 -4.82928e-07 -27.8766 32.0835 180 -78.5954 -180 0 0 0 0 0 0 0 0 0 -180 -1.62117e-06 -30.1248 0 0 0 -6.39154 -17.8849 -16.971 9.99872 15.703 33.0805 -180 9.88263e-07 11.1744 0 0 0 
-7.17218 -5.7739 126.828 168.599 -9.73363 -147.639 1.25504 -0.648534 4.4106 -14.0012 0.408903 4.14223 0 0 0 0 0 0 82.0952 10.384 23.4311 0 0 0 0 0 0 0 0 0 -67.151 1.87323 26.3111 5.1418e-06 -33.8778 34.3141 180 -62.6161 -180 0 0 0 17.1829 -31.1491 -62.9096 20.0567 35.1918 32.3539 -180 1.69772e-06 -29.6211 0 0 0 -6.62758 -18.7936 -22.9505 10.7831 14.8445 36.6268 -180 1.03405e-06 10.1729 0 0 0 
-6.62615 -5.82458 125.508 168.394 -10.4706 -147.22 0.872177 -0.421991 3.21737 -13.4557 0.648849 6.1707 0 0 -3.41509e-06 0 0 -3.41509e-06 80.2849 13.1369 27.3657 0 0 0 0 0 0 0 0 0 -67.4873 -0.223591 25.4222 6.04241e-06 -32.0289 36.2506 180 -62.2615 -180 0 0 0 17.9103 -31.4895 -63.107 23.1316 29.5642 27.3373 -180 -5.28843e-07 -35.3736 0 0 0 -5.96819 -19.8548 -24.8502 11.5547 14.5614 39.1172 -180 -1.9766e-06 10.9629 0 0 0 
-6.11367 -5.91376 124.343 168.049 -10.4682 -146.178 0.848728 -0.415699 3.20179 -15.9351 0.687861 4.57431 0 0 0 0 0 0 82.3215 11.9702 28.3018 0 0 0 0 0 0 0 0 0 -64.4669 1.80916 25.1635 9.21275e-06 -33.4822 37.2579 180 -60.8991 -180 0 0 0 18.3997 -31.0708 -63.8301 19.9392 34.4128 27.8576 -180 1.41481e-06 -34.1003 0 0 0 -5.78475 -18.5347 -24.2119 9.72939 13.6669 35.9676 -180 3.69373e-06 9.41811 0 0 0 
-5.70923 -6.04667 123.253 168.103 -9.9141 -145.401 0.788871 -0.402089 3.12841 -16.8308 0.641504 3.82638 0 0 0 0 0 0 82.6842 12.1145 29.5016 0 0 0 0 0 0 0 0 0 -63.0403 3.12959 23.3363 6.29235e-06 -35.5009 51.8544 180 -64.5993 -180 0 0 0 3.27177 -22.7004 -57.5107 14.0539 24.3298 31.2832 -180 2.86197e-06 -23.9391 0 0 0 -4.89709 -18.4078 -24.2818 9.44674 13.9824 34.5521 -180 7.17383e-07 8.47362 0 0 0 
-5.23539 -6.15063 122.211 167.97 -9.89373 -144.61 0.77661 -0.413739 3.14168 -18.9458 0.281275 1.38973 0 0 0 0 0 0 84.5909 10.2151 30.9972 0 0 0 0 0 0 0 0 0 -60.068 5.84458 24.0938 4.20382e-06 -35.6709 43.3407 180 -81.147 -180 0 0 0 -3.74604 -17.5905 -55.1314 11.2045 18.1529 32.4484 -180 1.53731e-06 -19.7045 0 0 0 -4.63819 -17.6297 -25.2205 8.80419 13.3404 33.8718 -180 2.33438e-06 7.43909 0 0 0 
-4.86252 -6.18076 121.298 168.3 -9.35674 -144.045 0.757717 -0.398989 3.17842 -18.9794 -0.00771973 -0.0368869 0 0 0 0 0 0 84.7883 9.55772 31.5978 0 0 0 0 0 0 0 0 0 -59.1517 7.78061 24.3169 1.37047e-05 -35.9165 41.9414 180 -86.8504 -180 0 0 0 15.1213 -27.3548 -62.9152 18.9708 31.4796 33.3567 -180 -1.66532e-07 -27.5302 0 0 0 -5.84668 -13.0135 -24.9164 6.10665 10.0642 31.4759 -180 -9.46005e-07 6.33526 0 0 0 
-4.4768 -6.17373 120.341 168.39 -9.38059 -143.533 0.763088 -0.389387 3.16521 -18.2869 -0.155198 -0.778762 0 0 0 0 0 0 84.5967 9.17369 30.9752 0 0 0 0 0 0 0 0 0 -59.28 8.74728 24.2057 4.22024e-06 -35.9803 42.1478 0.00101034 -89.6929 -0.0010206 0 0 0 -7.31292 -13.6281 -54.2565 7.87035 15.507 27.3408 -180 1.16824e-06 -23.8224 0 0 0 -5.44355 -12.2353 -25.0386 5.5508 9.36971 30.8345 -180 2.25809e-06 6.18729 0 0 0 
-4.18346 -6.10045 119.445 168.677 -9.06553 -143.077 0.76597 -0.380642 3.21281 -17.6754 -0.454679 -2.35642 0 0 -3.41509e-06 0 0 -3.41509e-06 84.0277 8.50863 32.3283 0 0 0 0 0 0 0 0 0 -59.4715 10.4807 23.9988 5.265e-06 -35.8258 42.2738 0.000113479 -85.8851 -0.000121937 0 0 0 -7.1162 -13.2375 -54.2677 11.8128 11.1458 22.6982 -180 -4.0567e-07 -29.345 0 0 0 -4.9048 -12.4514 -25.8953 5.3661 9.93644 28.5617 -180 -1.10311e-06 3.49166 0 0 0 
-3.86427 -6.12136 118.492 169.145 -8.90193 -143.138 0.753435 -0.344647 3.08903 -16.2312 -0.31665 -1.82086 0 0 0 0 0 0 82.2675 10.1852 35.98 0 0 0 0 0 0 0 0 0 -61.0057 9.1197 23.6669 1.05543e-06 -36.0079 44.0555 179.999 -89.5074 -179.999 0 0 0 16.633 -27.1756 -62.3083 20.8231 31.5508 36.0113 -180 2.32813e-06 -24.002 0 0 0 -5.50288 -9.75134 -25.959 4.74447 8.49337 29.3336 -180 1.21701e-06 4.54539 0 0 0 
-3.63738 -6.041 117.766 169.171 -8.7379 -142.406 0.739249 -0.371794 3.24556 -16.2337 -0.658371 -3.84773 0 0 0 0 0 0 82.6016 8.2593 35.8682 0 0 0 0 0 0 0 0 0 -59.9026 12.3832 24.3154 -1.45378e-05 -34.6953 40.3572 1.74329e-05 -77.6414 -1.62185e-05 0 0 0 18.7103 -27.8813 -63.4645 21.6711 30.4791 38.0754 -180 -4.14608e-07 -22.3526 0 0 0 -5.36127 -9.4655 -26.1088 4.04508 7.36088 28.8974 -180 2.93193e-06 4.31751 0 0 0 
-3.46582 -5.93017 117.078 169.276 -8.73503 -142.012 0.721456 -0.368728 3.19571 -15.8672 -0.77296 -4.71868 0 -2.13443e-07 0 0 -2.13443e-07 0 82.2427 7.58429 36.5471 0 0 0 0 0 0 0 0 0 -59.9993 13.041 24.6691 -7.25774e-06 -34.568 41.3132 -1.09039e-05 -72.4071 2.06782e-05 0 0 0 23.5563 -30.0199 -65.8132 25.0521 31.4136 41.8852 -180 7.94224e-07 -20.6691 0 0 0 -3.49683 -13.0963 -26.7406 5.39951 10.7344 26.9063 -180 1.73575e-06 1.75168 0 0 0 
-3.29245 -5.88418 116.507 169.685 -8.31636 -141.736 0.666494 -0.338331 3.12021 -12.4482 -0.36227 -3.30069 0 0 0 0 0 0 79.0007 9.06088 36.1971 0 0 0 0 0 0 0 0 0 -63.388 11.7232 23.893 1.44491e-05 -34.1842 40.3432 1.04542e-05 -73.045 -1.41165e-05 0 0 0 32.4047 -32.5565 -70.1658 29.8021 33.6794 45.9254 -180 -5.63917e-07 -21.0716 0 0 0 -5.23775 -8.89569 -26.4855 3.85669 7.47454 27.3944 -180 1.52106e-06 2.96594 0 0 0 
-3.16017 -5.83387 115.946 169.95 -8.09587 -141.513 0.640574 -0.324116 3.07604 -12.2471 -0.465457 -4.25647 0 0 0 0 0 0 78.8739 8.46719 37.816 0 0 0 0 0 0 0 0 0 -63.3545 12.6431 24.1887 6.18224e-06 -34.0442 39.5881 -4.74953e-06 -28.8805 4.74953e-06 0 0 0 28.6274 -31.2316 -67.9311 25.8731 35.4784 39.883 -180 -1.09388e-06 -24.9236 0 0 0 -3.22929 -12.4102 -27.0498 5.44562 10.8539 26.8511 -180 1.42887e-06 1.74653 0 0 0 
-3.06534 -5.79173 115.465 170.204 -7.77025 -141.341 0.611882 -0.309972 3.04565 -12.4007 -0.588225 -5.08084 0 0 0 0 0 0 78.9898 7.96259 39.5052 0 0 0 0 0 0 0 0 0 -62.9442 13.5345 24.4852 6.16571e-06 -33.8162 36.9771 8.05548e-06 -29.0785 -3.85322e-06 0 0 0 39.5002 -34.1164 -73.9311 32.665 36.7779 46.9592 -180 -3.09513e-07 -24.0035 0 0 0 -2.87962 -12.6717 -27.061 5.68524 11.2525 27.0298 -180 1.5487e-06 1.98959 0 0 0 
-2.9467 -5.7467 114.986 170.514 -7.47044 -141.27 0.595389 -0.298346 3.03413 -12.2881 -0.640318 -5.45912 -4.26887e-07 0 0 -4.26887e-07 0 0 79.1695 7.49017 39.3542 0 0 0 0 0 0 0 0 0 -62.8158 14.1354 24.3174 2.057e-06 -33.8894 35.9422 2.78324e-06 -30.3699 2.78324e-06 0 0 0 41.9808 -34.5272 -75.0777 33.3094 38.9033 46.2973 -180 1.96664e-06 -26.1565 0 0 0 -3.78969 -10.1565 -26.7125 4.73054 9.33151 27.0375 -180 -4.27819e-07 2.62939 0 0 0 
-2.90879 -5.69098 114.684 170.575 -7.32291 -141.112 0.59059 -0.298523 3.04771 -12.0034 -0.622772 -5.52919 0 0 -3.41509e-06 0 0 -3.41509e-06 78.8057 7.51129 39.9602 0 0 0 0 0 0 0 0 0 -63.1588 14.0838 24.147 1.3371e-05 -33.8928 36.7452 -3.29513e-06 -29.5195 -8.9768e-07 0 0 0 42.7374 -34.6406 -75.6648 34.3441 37.1853 48.5057 -180 4.38032e-07 -24.2534 0 0 0 -4.1754 -9.29858 -26.7723 4.44581 8.73074 27.1223 -180 -1.64865e-06 2.77385 0 0 0 
